<svg xmlns="http://www.w3.org/2000/svg" xmlns:xlink="http://www.w3.org/1999/xlink"><defs><symbol id="Pointer-usage" viewBox="0 0 6 8"><path d="M0 0l6 4.03L0 8V0z" fill="#999"/></symbol><symbol id="Vector (1)-usage" viewBox="0 0 10 20"><path d="M1 1l8 9-8 9" stroke="#EEE" stroke-width="2" stroke-linecap="round" stroke-linejoin="round"/></symbol><symbol id="Vector-usage" viewBox="0 0 10 20"><path d="M9 1l-8 9 8 9" stroke="#EEE" stroke-width="2" stroke-linecap="round" stroke-linejoin="round"/></symbol><symbol id="checkbox-usage" viewBox="0 0 13 10"><path fill-rule="evenodd" clip-rule="evenodd" d="M1.625 3.333L0 5l4.875 5L13 1.667 11.375 0l-6.5 6.667-3.25-3.334z" fill="#121212"/></symbol><symbol id="location-usage" viewBox="0 0 17 21"><path d="M16 8.5c0 5.833-7.5 10.833-7.5 10.833S1 14.333 1 8.5a7.5 7.5 0 0115 0z" stroke="#999" stroke-width="2" stroke-linecap="round" stroke-linejoin="round"/><path d="M8.5 11a2.5 2.5 0 100-5 2.5 2.5 0 000 5z" stroke="#999" stroke-width="2" stroke-linecap="round" stroke-linejoin="round"/></symbol><symbol id="menu_btn-usage" viewBox="0 0 34 34"><path d="M5.567 16h19m-19-8h19m-19 16h19"/></symbol></defs><view id="view-Pointer-usage" viewBox="10 10 15 20"></view><view id="view-Vector (1)-usage" viewBox="50 10 10 20"></view><view id="view-Vector-usage" viewBox="90 10 10 20"></view><view id="view-checkbox-usage" viewBox="130 10 26 20"></view><view id="view-location-usage" viewBox="190 10 16.19 20"></view><view id="view-menu_btn-usage" viewBox="230 10 20 20"></view><use id="Pointer-usage" xlink:href="#Pointer-usage" width="15" height="20" x="10" y="10"></use><use id="Vector (1)-usage" xlink:href="#Vector (1)-usage" width="10" height="20" x="50" y="10"></use><use id="Vector-usage" xlink:href="#Vector-usage" width="10" height="20" x="90" y="10"></use><use id="checkbox-usage" xlink:href="#checkbox-usage" width="26" height="20" x="130" y="10"></use><use id="location-usage" xlink:href="#location-usage" width="16.19" height="20" x="190" y="10"></use><use id="menu_btn-usage" xlink:href="#menu_btn-usage" width="20" height="20" x="230" y="10"></use></svg>